<?xml version="1.0" encoding="UTF-8" standalone="no"?>
<svg
   xmlns:dc="http://purl.org/dc/elements/1.1/"
   xmlns:cc="http://creativecommons.org/ns#"
   xmlns:rdf="http://www.w3.org/1999/02/22-rdf-syntax-ns#"
   xmlns:svg="http://www.w3.org/2000/svg"
   xmlns="http://www.w3.org/2000/svg"
   xmlns:sodipodi="http://sodipodi.sourceforge.net/DTD/sodipodi-0.dtd"
   xmlns:inkscape="http://www.inkscape.org/namespaces/inkscape"
   width="336.176147pt"
   height="95.658554pt"
   viewBox="0 0 336.176147 95.658554"
   version="1.2"
   id="svg109"
   sodipodi:docname="lolimot.svg"
   inkscape:version="0.92.3 (unknown)">
  <metadata
     id="metadata113">
    <rdf:RDF>
      <cc:Work
         rdf:about="">
        <dc:format>image/svg+xml</dc:format>
        <dc:type
           rdf:resource="http://purl.org/dc/dcmitype/StillImage" />
        <dc:title></dc:title>
      </cc:Work>
    </rdf:RDF>
  </metadata>
  <sodipodi:namedview
     pagecolor="#ffffff"
     bordercolor="#666666"
     borderopacity="1"
     objecttolerance="10"
     gridtolerance="10"
     guidetolerance="10"
     inkscape:pageopacity="0"
     inkscape:pageshadow="2"
     inkscape:window-width="752"
     inkscape:window-height="480"
     id="namedview111"
     showgrid="false"
     inkscape:zoom="0.84553887"
     inkscape:cx="226.48279"
     inkscape:cy="59.041658"
     inkscape:window-x="0"
     inkscape:window-y="29"
     inkscape:window-maximized="0"
     inkscape:current-layer="svg109" />
  <defs
     id="defs8">
    <clipPath
       id="clip1">
      <path
         d="M 329 83 L 336.175781 83 L 336.175781 88 L 329 88 Z M 329 83 "
         id="path2" />
    </clipPath>
    <clipPath
       id="clip2">
      <path
         d="M 328 91 L 332 91 L 332 95.660156 L 328 95.660156 Z M 328 91 "
         id="path5" />
    </clipPath>
  </defs>
  <g
     id="surface164">
    <path
       style="fill:none;stroke-width:1.028659;stroke-linecap:butt;stroke-linejoin:miter;stroke:rgb(0%,0%,0%);stroke-opacity:1;stroke-miterlimit:2.613;"
       d="M 12.132812 90.832031 L 12.132812 9.1875 "
       id="path10" />
    <path
       style=" stroke:none;fill-rule:evenodd;fill:rgb(0%,0%,0%);fill-opacity:1;"
       d="M 9.902344 9.757812 L 12.132812 3.066406 L 14.363281 9.757812 L 9.902344 9.757812 "
       id="path12" />
    <path
       style="fill:none;stroke-width:1.028659;stroke-linecap:butt;stroke-linejoin:miter;stroke:rgb(0%,0%,0%);stroke-opacity:1;stroke-miterlimit:2.613;"
       d="M 5.332031 84.085938 L 87.011719 84.085938 "
       id="path14" />
    <path
       style=" stroke:none;fill-rule:evenodd;fill:rgb(0%,0%,0%);fill-opacity:1;"
       d="M 86.441406 81.855469 L 93.128906 84.085938 L 86.441406 86.316406 L 86.441406 81.855469 "
       id="path16" />
    <path
       style="fill:none;stroke-width:1.028659;stroke-linecap:butt;stroke-linejoin:miter;stroke:rgb(0%,0%,0%);stroke-opacity:1;stroke-miterlimit:2.613;"
       d="M 79.640625 16.5625 L 12.132812 16.5625 "
       id="path18" />
    <path
       style="fill:none;stroke-width:1.028659;stroke-linecap:butt;stroke-linejoin:miter;stroke:rgb(0%,0%,0%);stroke-opacity:1;stroke-miterlimit:2.613;"
       d="M 79.640625 84.085938 L 79.640625 16.5625 "
       id="path20" />
    <path
       style="fill-rule:evenodd;fill:rgb(100%,100%,100%);fill-opacity:1;stroke-width:1.028659;stroke-linecap:butt;stroke-linejoin:miter;stroke:rgb(0%,0%,0%);stroke-opacity:1;stroke-miterlimit:2.613;"
       d="M 39.113281 50.351562 L 39.226562 49.152344 L 39.511719 48.007812 C 42.144531 41.554688 51.046875 42.34375 52.546875 49.152344 L 52.601562 50.351562 L 52.546875 51.496094 C 51.113281 58.324219 42.074219 59.132812 39.511719 52.640625 L 39.226562 51.496094 Z M 39.113281 50.351562 "
       id="path22" />
    <path
       style=" stroke:none;fill-rule:nonzero;fill:rgb(0%,0%,0%);fill-opacity:1;"
       d="M 48.699219 53.640625 L 48.699219 52.859375 L 46.746094 52.859375 L 46.746094 46.78125 L 43.714844 47.4375 L 43.714844 48.359375 L 45.730469 47.953125 L 45.730469 52.859375 L 43.714844 52.859375 L 43.714844 53.78125 L 48.699219 53.78125 Z M 48.699219 53.640625 "
       id="path24" />
    <path
       style="fill:none;stroke-width:1.028659;stroke-linecap:butt;stroke-linejoin:miter;stroke:rgb(0%,0%,0%);stroke-opacity:1;stroke-miterlimit:2.613;"
       d="M 133.65625 90.832031 L 133.65625 9.1875 "
       id="path26" />
    <path
       style=" stroke:none;fill-rule:evenodd;fill:rgb(0%,0%,0%);fill-opacity:1;"
       d="M 131.425781 9.757812 L 133.65625 3.070312 L 135.882812 9.757812 L 131.425781 9.757812 "
       id="path28" />
    <path
       style="fill:none;stroke-width:1.028659;stroke-linecap:butt;stroke-linejoin:miter;stroke:rgb(0%,0%,0%);stroke-opacity:1;stroke-miterlimit:2.613;"
       d="M 126.910156 84.085938 L 208.535156 84.085938 "
       id="path30" />
    <path
       style=" stroke:none;fill-rule:evenodd;fill:rgb(0%,0%,0%);fill-opacity:1;"
       d="M 207.964844 81.855469 L 214.652344 84.085938 L 207.964844 86.316406 L 207.964844 81.855469 "
       id="path32" />
    <path
       style="fill:none;stroke-width:1.028659;stroke-linecap:butt;stroke-linejoin:miter;stroke:rgb(0%,0%,0%);stroke-opacity:1;stroke-miterlimit:2.613;"
       d="M 201.160156 16.5625 L 133.65625 16.5625 "
       id="path34" />
    <path
       style="fill:none;stroke-width:1.028659;stroke-linecap:butt;stroke-linejoin:miter;stroke:rgb(0%,0%,0%);stroke-opacity:1;stroke-miterlimit:2.613;"
       d="M 201.160156 84.085938 L 201.160156 16.5625 "
       id="path36" />
    <path
       style="fill:none;stroke-width:1.028659;stroke-linecap:butt;stroke-linejoin:miter;stroke:rgb(0%,0%,0%);stroke-opacity:1;stroke-miterlimit:2.613;"
       d="M 167.378906 84.085938 L 167.378906 16.5625 "
       id="path38" />
    <path
       style="fill-rule:evenodd;fill:rgb(100%,100%,100%);fill-opacity:1;stroke-width:1.028659;stroke-linecap:butt;stroke-linejoin:miter;stroke:rgb(0%,0%,0%);stroke-opacity:1;stroke-miterlimit:2.613;"
       d="M 143.773438 50.351562 L 143.886719 49.152344 L 144.171875 48.007812 C 146.738281 41.566406 155.816406 42.351562 157.148438 49.152344 L 157.261719 50.351562 L 157.148438 51.496094 C 155.878906 58.324219 146.671875 59.117188 144.171875 52.640625 L 143.886719 51.496094 Z M 143.773438 50.351562 "
       id="path40" />
    <path
       style=" stroke:none;fill-rule:nonzero;fill:rgb(0%,0%,0%);fill-opacity:1;"
       d="M 153.300781 53.640625 L 153.300781 52.859375 L 151.347656 52.859375 L 151.347656 46.78125 L 148.316406 47.4375 L 148.316406 48.359375 L 150.332031 47.953125 L 150.332031 52.859375 L 148.316406 52.859375 L 148.316406 53.78125 L 153.300781 53.78125 Z M 153.300781 53.640625 "
       id="path42" />
    <path
       style="fill-rule:evenodd;fill:rgb(100%,100%,100%);fill-opacity:1;stroke-width:1.028659;stroke-linecap:butt;stroke-linejoin:miter;stroke:rgb(0%,0%,0%);stroke-opacity:1;stroke-miterlimit:2.613;"
       d="M 177.554688 50.351562 L 177.609375 49.152344 L 177.953125 48.007812 C 180.433594 41.5625 189.597656 42.355469 190.929688 49.152344 L 191.042969 50.351562 L 190.929688 51.496094 C 189.683594 58.308594 180.34375 59.121094 177.953125 52.640625 L 177.609375 51.496094 Z M 177.554688 50.351562 "
       id="path44" />
    <path
       style=" stroke:none;fill-rule:nonzero;fill:rgb(0%,0%,0%);fill-opacity:1;"
       d="M 186.753906 53.640625 L 186.753906 52.046875 L 185.753906 52.046875 L 185.753906 52.859375 L 183.300781 52.859375 L 184.941406 51.53125 C 186.160156 50.546875 186.753906 49.875 186.753906 48.984375 C 186.753906 48.640625 186.597656 48.203125 186.457031 47.921875 C 186.050781 47.1875 185.050781 46.8125 184.363281 46.8125 C 183.503906 46.8125 182.660156 47.171875 182.019531 47.828125 L 182.019531 48.8125 L 183.019531 48.8125 C 183.019531 47.90625 183.660156 47.71875 184.316406 47.71875 C 185.175781 47.71875 185.769531 48.125 185.769531 49.046875 C 185.769531 49.21875 185.722656 49.375 185.660156 49.53125 C 185.519531 49.921875 184.675781 50.625 184.378906 50.859375 L 181.753906 52.90625 L 181.753906 53.78125 L 186.753906 53.78125 Z M 186.753906 53.640625 "
       id="path46" />
    <path
       style="fill:none;stroke-width:1.028659;stroke-linecap:butt;stroke-linejoin:miter;stroke:rgb(0%,0%,0%);stroke-opacity:1;stroke-miterlimit:2.613;"
       d="M 255.179688 92.441406 L 255.179688 10.792969 "
       id="path48" />
    <path
       style=" stroke:none;fill-rule:evenodd;fill:rgb(0%,0%,0%);fill-opacity:1;"
       d="M 252.949219 11.308594 L 255.175781 4.617188 L 257.40625 11.308594 L 252.949219 11.308594 "
       id="path50" />
    <path
       style="fill:none;stroke-width:1.028659;stroke-linecap:butt;stroke-linejoin:miter;stroke:rgb(0%,0%,0%);stroke-opacity:1;stroke-miterlimit:2.613;"
       d="M 248.433594 85.695312 L 330.058594 85.695312 "
       id="path52" />
    <g
       clip-path="url(#clip1)"
       clip-rule="nonzero"
       id="g56">
      <path
         style=" stroke:none;fill-rule:evenodd;fill:rgb(0%,0%,0%);fill-opacity:1;"
         d="M 329.488281 83.464844 L 336.175781 85.695312 L 329.488281 87.921875 L 329.488281 83.464844 "
         id="path54" />
    </g>
    <path
       style="fill:none;stroke-width:1.028659;stroke-linecap:butt;stroke-linejoin:miter;stroke:rgb(0%,0%,0%);stroke-opacity:1;stroke-miterlimit:2.613;"
       d="M 322.683594 18.167969 L 255.179688 18.167969 "
       id="path58" />
    <path
       style="fill:none;stroke-width:1.028659;stroke-linecap:butt;stroke-linejoin:miter;stroke:rgb(0%,0%,0%);stroke-opacity:1;stroke-miterlimit:2.613;"
       d="M 322.683594 85.695312 L 322.683594 18.167969 "
       id="path60" />
    <path
       style="fill:none;stroke-width:1.028659;stroke-linecap:butt;stroke-linejoin:miter;stroke:rgb(0%,0%,0%);stroke-opacity:1;stroke-miterlimit:2.613;"
       d="M 288.902344 85.695312 L 288.902344 18.167969 "
       id="path62" />
    <path
       style="fill-rule:evenodd;fill:rgb(100%,100%,100%);fill-opacity:1;stroke-width:1.028659;stroke-linecap:butt;stroke-linejoin:miter;stroke:rgb(0%,0%,0%);stroke-opacity:1;stroke-miterlimit:2.613;"
       d="M 265.296875 35.035156 L 265.410156 33.835938 L 265.695312 32.691406 C 268.195312 26.3125 277.398438 27.0625 278.671875 33.835938 L 278.785156 35.035156 L 278.671875 36.179688 C 277.402344 42.988281 268.238281 43.828125 265.695312 37.324219 L 265.410156 36.179688 Z M 265.296875 35.035156 "
       id="path64" />
    <path
       style=" stroke:none;fill-rule:nonzero;fill:rgb(0%,0%,0%);fill-opacity:1;"
       d="M 274.824219 38.324219 L 274.824219 37.542969 L 272.871094 37.542969 L 272.871094 31.464844 L 269.839844 32.121094 L 269.839844 33.042969 L 271.855469 32.636719 L 271.855469 37.542969 L 269.839844 37.542969 L 269.839844 38.464844 L 274.824219 38.464844 Z M 274.824219 38.324219 "
       id="path66" />
    <path
       style="fill-rule:evenodd;fill:rgb(100%,100%,100%);fill-opacity:1;stroke-width:1.028659;stroke-linecap:butt;stroke-linejoin:miter;stroke:rgb(0%,0%,0%);stroke-opacity:1;stroke-miterlimit:2.613;"
       d="M 299.273438 51.902344 L 299.386719 50.757812 L 299.675781 49.617188 C 302.238281 43.125 311.277344 43.929688 312.707031 50.757812 L 312.765625 51.902344 L 312.707031 53.101562 C 311.25 59.871094 302.269531 60.652344 299.675781 54.246094 L 299.386719 53.101562 Z M 299.273438 51.902344 "
       id="path68" />
    <path
       style=" stroke:none;fill-rule:nonzero;fill:rgb(0%,0%,0%);fill-opacity:1;"
       d="M 308.53125 55.191406 L 308.53125 53.597656 L 307.53125 53.597656 L 307.53125 54.410156 L 305.078125 54.410156 L 306.71875 53.082031 C 307.9375 52.097656 308.53125 51.425781 308.53125 50.535156 C 308.53125 50.191406 308.375 49.753906 308.234375 49.472656 C 307.828125 48.738281 306.828125 48.363281 306.140625 48.363281 C 305.28125 48.363281 304.4375 48.722656 303.796875 49.378906 L 303.796875 50.363281 L 304.796875 50.363281 C 304.796875 49.457031 305.4375 49.269531 306.09375 49.269531 C 306.953125 49.269531 307.546875 49.675781 307.546875 50.597656 C 307.546875 50.769531 307.5 50.925781 307.4375 51.082031 C 307.296875 51.472656 306.453125 52.175781 306.15625 52.410156 L 303.53125 54.457031 L 303.53125 55.332031 L 308.53125 55.332031 Z M 308.53125 55.191406 "
       id="path70" />
    <path
       style="fill:none;stroke-width:1.028659;stroke-linecap:butt;stroke-linejoin:miter;stroke:rgb(0%,0%,0%);stroke-opacity:1;stroke-miterlimit:2.613;"
       d="M 288.902344 51.902344 L 255.175781 51.902344 "
       id="path72" />
    <path
       style="fill-rule:evenodd;fill:rgb(100%,100%,100%);fill-opacity:1;stroke-width:1.028659;stroke-linecap:butt;stroke-linejoin:miter;stroke:rgb(0%,0%,0%);stroke-opacity:1;stroke-miterlimit:2.613;"
       d="M 265.296875 68.769531 L 265.410156 67.625 L 265.695312 66.484375 C 268.273438 60 277.328125 60.785156 278.671875 67.625 L 278.785156 68.769531 L 278.671875 69.96875 C 277.363281 76.792969 268.230469 77.5625 265.695312 71.113281 L 265.410156 69.96875 Z M 265.296875 68.769531 "
       id="path74" />
    <path
       style="fill-rule:evenodd;fill:rgb(100%,100%,100%);fill-opacity:1;stroke-width:1.028659;stroke-linecap:butt;stroke-linejoin:miter;stroke:rgb(0%,0%,0%);stroke-opacity:1;stroke-miterlimit:2.613;"
       d="M 120.164062 50.351562 L 110.675781 40.863281 L 110.675781 47.152344 L 93.128906 47.152344 L 93.128906 53.554688 L 110.675781 53.554688 L 110.675781 59.789062 Z M 120.164062 50.351562 "
       id="path76" />
    <path
       style="fill-rule:evenodd;fill:rgb(100%,100%,100%);fill-opacity:1;stroke-width:1.028659;stroke-linecap:butt;stroke-linejoin:miter;stroke:rgb(0%,0%,0%);stroke-opacity:1;stroke-miterlimit:2.613;"
       d="M 241.6875 50.351562 L 232.199219 40.863281 L 232.199219 47.152344 L 214.652344 47.152344 L 214.652344 53.554688 L 232.199219 53.554688 L 232.199219 59.789062 Z M 241.6875 50.351562 "
       id="path78" />
    <path
       style=" stroke:none;fill-rule:nonzero;fill:rgb(0%,0%,0%);fill-opacity:1;"
       d="M 327.953125 90.585938 C 327.6875 90.632812 327.375 91.023438 327.375 91.179688 C 327.375 91.382812 327.75 91.648438 327.859375 91.648438 C 328.109375 91.648438 328.484375 91.226562 328.484375 91.007812 C 328.484375 90.648438 327.890625 90.304688 327.53125 90.304688 C 327.03125 90.304688 326.53125 90.992188 326.453125 91.164062 L 326.859375 91.164062 C 326.671875 90.523438 325.953125 90.304688 325.796875 90.304688 C 324.953125 90.304688 324.28125 91.601562 324.28125 91.773438 C 324.28125 91.804688 324.53125 92.039062 324.59375 92.039062 C 324.65625 92.039062 324.8125 91.929688 324.875 91.804688 C 325.171875 90.835938 325.53125 90.851562 325.78125 90.851562 C 326.15625 90.851562 326.015625 91.023438 326.015625 91.210938 C 326.015625 91.398438 325.96875 91.601562 325.875 91.992188 L 325.578125 93.148438 C 325.453125 93.648438 325.421875 93.914062 324.984375 93.914062 C 324.9375 93.914062 324.875 93.976562 324.703125 93.867188 L 324.546875 94.195312 C 324.859375 94.132812 325.125 93.695312 325.125 93.585938 C 325.125 93.414062 324.796875 93.132812 324.640625 93.132812 C 324.4375 93.132812 324.015625 93.492188 324.015625 93.757812 C 324.015625 94.117188 324.609375 94.460938 324.96875 94.460938 C 325.375 94.460938 325.796875 94.085938 325.984375 93.742188 L 325.625 93.617188 C 325.765625 94.101562 326.390625 94.460938 326.703125 94.460938 C 327.546875 94.460938 328.203125 93.179688 328.203125 92.992188 C 328.203125 92.945312 327.96875 92.726562 327.921875 92.726562 C 327.84375 92.726562 327.625 92.960938 327.609375 93.023438 C 327.375 93.757812 327.09375 93.914062 326.71875 93.914062 C 326.4375 93.914062 326.46875 93.882812 326.46875 93.539062 C 326.46875 93.367188 326.5 93.226562 326.640625 92.679688 L 326.9375 91.539062 C 327.0625 91.039062 327.140625 90.851562 327.53125 90.851562 C 327.546875 90.851562 327.625 90.804688 327.796875 90.914062 Z M 327.953125 90.585938 "
       id="path80" />
    <g
       clip-path="url(#clip2)"
       clip-rule="nonzero"
       id="g84">
      <path
         style=" stroke:none;fill-rule:nonzero;fill:rgb(0%,0%,0%);fill-opacity:1;"
         d="M 330.589844 91.894531 C 330.589844 91.738281 330.402344 91.550781 330.167969 91.550781 C 329.886719 91.832031 329.714844 91.910156 328.996094 91.910156 L 328.996094 92.472656 C 329.339844 92.472656 329.636719 92.472656 329.777344 92.410156 L 329.777344 95.003906 C 329.777344 95.207031 329.949219 95.097656 329.417969 95.097656 L 329.027344 95.097656 L 329.027344 95.660156 C 329.449219 95.628906 329.933594 95.628906 330.183594 95.628906 C 330.433594 95.628906 330.917969 95.628906 331.339844 95.660156 L 331.339844 95.097656 L 330.949219 95.097656 C 330.417969 95.097656 330.589844 95.207031 330.589844 95.003906 Z M 330.589844 91.894531 "
         id="path82" />
    </g>
    <path
       style=" stroke:none;fill-rule:nonzero;fill:rgb(0%,0%,0%);fill-opacity:1;"
       d="M 206.429688 88.976562 C 206.164062 89.023438 205.851562 89.414062 205.851562 89.570312 C 205.851562 89.773438 206.226562 90.039062 206.335938 90.039062 C 206.585938 90.039062 206.960938 89.617188 206.960938 89.398438 C 206.960938 89.039062 206.367188 88.695312 206.007812 88.695312 C 205.507812 88.695312 205.007812 89.382812 204.929688 89.554688 L 205.335938 89.554688 C 205.148438 88.914062 204.429688 88.695312 204.273438 88.695312 C 203.429688 88.695312 202.757812 89.992188 202.757812 90.164062 C 202.757812 90.195312 203.007812 90.429688 203.070312 90.429688 C 203.132812 90.429688 203.289062 90.320312 203.351562 90.195312 C 203.648438 89.226562 204.007812 89.242188 204.257812 89.242188 C 204.632812 89.242188 204.492188 89.414062 204.492188 89.601562 C 204.492188 89.789062 204.445312 89.992188 204.351562 90.382812 L 204.054688 91.539062 C 203.929688 92.039062 203.898438 92.304688 203.460938 92.304688 C 203.414062 92.304688 203.351562 92.367188 203.179688 92.257812 L 203.023438 92.585938 C 203.335938 92.523438 203.601562 92.085938 203.601562 91.976562 C 203.601562 91.804688 203.273438 91.523438 203.117188 91.523438 C 202.914062 91.523438 202.492188 91.882812 202.492188 92.148438 C 202.492188 92.507812 203.085938 92.851562 203.445312 92.851562 C 203.851562 92.851562 204.273438 92.476562 204.460938 92.132812 L 204.101562 92.007812 C 204.242188 92.492188 204.867188 92.851562 205.179688 92.851562 C 206.023438 92.851562 206.679688 91.570312 206.679688 91.382812 C 206.679688 91.335938 206.445312 91.117188 206.398438 91.117188 C 206.320312 91.117188 206.101562 91.351562 206.085938 91.414062 C 205.851562 92.148438 205.570312 92.304688 205.195312 92.304688 C 204.914062 92.304688 204.945312 92.273438 204.945312 91.929688 C 204.945312 91.757812 204.976562 91.617188 205.117188 91.070312 L 205.414062 89.929688 C 205.539062 89.429688 205.617188 89.242188 206.007812 89.242188 C 206.023438 89.242188 206.101562 89.195312 206.273438 89.304688 Z M 206.429688 88.976562 "
       id="path86" />
    <path
       style=" stroke:none;fill-rule:nonzero;fill:rgb(0%,0%,0%);fill-opacity:1;"
       d="M 209.066406 90.285156 C 209.066406 90.128906 208.878906 89.941406 208.644531 89.941406 C 208.363281 90.222656 208.191406 90.300781 207.472656 90.300781 L 207.472656 90.863281 C 207.816406 90.863281 208.113281 90.863281 208.253906 90.800781 L 208.253906 93.394531 C 208.253906 93.597656 208.425781 93.488281 207.894531 93.488281 L 207.503906 93.488281 L 207.503906 94.050781 C 207.925781 94.019531 208.410156 94.019531 208.660156 94.019531 C 208.910156 94.019531 209.394531 94.019531 209.816406 94.050781 L 209.816406 93.488281 L 209.425781 93.488281 C 208.894531 93.488281 209.066406 93.597656 209.066406 93.394531 Z M 209.066406 90.285156 "
       id="path88" />
    <path
       style=" stroke:none;fill-rule:nonzero;fill:rgb(0%,0%,0%);fill-opacity:1;"
       d="M 84.90625 88.976562 C 84.640625 89.023438 84.328125 89.414062 84.328125 89.570312 C 84.328125 89.773438 84.703125 90.039062 84.8125 90.039062 C 85.0625 90.039062 85.4375 89.617188 85.4375 89.398438 C 85.4375 89.039062 84.84375 88.695312 84.484375 88.695312 C 83.984375 88.695312 83.484375 89.382812 83.40625 89.554688 L 83.8125 89.554688 C 83.625 88.914062 82.90625 88.695312 82.75 88.695312 C 81.90625 88.695312 81.234375 89.992188 81.234375 90.164062 C 81.234375 90.195312 81.484375 90.429688 81.546875 90.429688 C 81.609375 90.429688 81.765625 90.320312 81.828125 90.195312 C 82.125 89.226562 82.484375 89.242188 82.734375 89.242188 C 83.109375 89.242188 82.96875 89.414062 82.96875 89.601562 C 82.96875 89.789062 82.921875 89.992188 82.828125 90.382812 L 82.53125 91.539062 C 82.40625 92.039062 82.375 92.304688 81.9375 92.304688 C 81.890625 92.304688 81.828125 92.367188 81.65625 92.257812 L 81.5 92.585938 C 81.8125 92.523438 82.078125 92.085938 82.078125 91.976562 C 82.078125 91.804688 81.75 91.523438 81.59375 91.523438 C 81.390625 91.523438 80.96875 91.882812 80.96875 92.148438 C 80.96875 92.507812 81.5625 92.851562 81.921875 92.851562 C 82.328125 92.851562 82.75 92.476562 82.9375 92.132812 L 82.578125 92.007812 C 82.71875 92.492188 83.34375 92.851562 83.65625 92.851562 C 84.5 92.851562 85.15625 91.570312 85.15625 91.382812 C 85.15625 91.335938 84.921875 91.117188 84.875 91.117188 C 84.796875 91.117188 84.578125 91.351562 84.5625 91.414062 C 84.328125 92.148438 84.046875 92.304688 83.671875 92.304688 C 83.390625 92.304688 83.421875 92.273438 83.421875 91.929688 C 83.421875 91.757812 83.453125 91.617188 83.59375 91.070312 L 83.890625 89.929688 C 84.015625 89.429688 84.09375 89.242188 84.484375 89.242188 C 84.5 89.242188 84.578125 89.195312 84.75 89.304688 Z M 84.90625 88.976562 "
       id="path90" />
    <path
       style=" stroke:none;fill-rule:nonzero;fill:rgb(0%,0%,0%);fill-opacity:1;"
       d="M 87.542969 90.285156 C 87.542969 90.128906 87.355469 89.941406 87.121094 89.941406 C 86.839844 90.222656 86.667969 90.300781 85.949219 90.300781 L 85.949219 90.863281 C 86.292969 90.863281 86.589844 90.863281 86.730469 90.800781 L 86.730469 93.394531 C 86.730469 93.597656 86.902344 93.488281 86.371094 93.488281 L 85.980469 93.488281 L 85.980469 94.050781 C 86.402344 94.019531 86.886719 94.019531 87.136719 94.019531 C 87.386719 94.019531 87.871094 94.019531 88.292969 94.050781 L 88.292969 93.488281 L 87.902344 93.488281 C 87.371094 93.488281 87.542969 93.597656 87.542969 93.394531 Z M 87.542969 90.285156 "
       id="path92" />
    <path
       style=" stroke:none;fill-rule:nonzero;fill:rgb(0%,0%,0%);fill-opacity:1;"
       d="M 246.984375 9.457031 C 246.71875 9.503906 246.40625 9.894531 246.40625 10.050781 C 246.40625 10.253906 246.78125 10.519531 246.890625 10.519531 C 247.140625 10.519531 247.515625 10.097656 247.515625 9.878906 C 247.515625 9.519531 246.921875 9.175781 246.5625 9.175781 C 246.0625 9.175781 245.5625 9.863281 245.484375 10.035156 L 245.890625 10.035156 C 245.703125 9.394531 244.984375 9.175781 244.828125 9.175781 C 243.984375 9.175781 243.3125 10.472656 243.3125 10.644531 C 243.3125 10.675781 243.5625 10.910156 243.625 10.910156 C 243.6875 10.910156 243.84375 10.800781 243.90625 10.675781 C 244.203125 9.707031 244.5625 9.722656 244.8125 9.722656 C 245.1875 9.722656 245.046875 9.894531 245.046875 10.082031 C 245.046875 10.269531 245 10.472656 244.90625 10.863281 L 244.609375 12.019531 C 244.484375 12.519531 244.453125 12.785156 244.015625 12.785156 C 243.96875 12.785156 243.90625 12.847656 243.734375 12.738281 L 243.578125 13.066406 C 243.890625 13.003906 244.15625 12.566406 244.15625 12.457031 C 244.15625 12.285156 243.828125 12.003906 243.671875 12.003906 C 243.46875 12.003906 243.046875 12.363281 243.046875 12.628906 C 243.046875 12.988281 243.640625 13.332031 244 13.332031 C 244.40625 13.332031 244.828125 12.957031 245.015625 12.613281 L 244.65625 12.488281 C 244.796875 12.972656 245.421875 13.332031 245.734375 13.332031 C 246.578125 13.332031 247.234375 12.050781 247.234375 11.863281 C 247.234375 11.816406 247 11.597656 246.953125 11.597656 C 246.875 11.597656 246.65625 11.832031 246.640625 11.894531 C 246.40625 12.628906 246.125 12.785156 245.75 12.785156 C 245.46875 12.785156 245.5 12.753906 245.5 12.410156 C 245.5 12.238281 245.53125 12.097656 245.671875 11.550781 L 245.96875 10.410156 C 246.09375 9.910156 246.171875 9.722656 246.5625 9.722656 C 246.578125 9.722656 246.65625 9.675781 246.828125 9.785156 Z M 246.984375 9.457031 "
       id="path94" />
    <path
       style=" stroke:none;fill-rule:nonzero;fill:rgb(0%,0%,0%);fill-opacity:1;"
       d="M 249.386719 13.3125 C 249.480469 13.234375 249.714844 13.046875 249.808594 12.96875 C 250.152344 12.65625 250.542969 12.21875 250.542969 11.703125 C 250.542969 11.046875 249.792969 10.421875 249.089844 10.421875 C 248.417969 10.421875 247.792969 11.125 247.792969 11.625 C 247.792969 11.890625 248.199219 12.109375 248.277344 12.109375 C 248.386719 12.109375 248.746094 11.84375 248.746094 11.640625 C 248.746094 11.34375 248.292969 11.15625 248.480469 11.15625 C 248.574219 10.9375 248.761719 10.984375 249.027344 10.984375 C 249.558594 10.984375 249.636719 11.234375 249.636719 11.703125 C 249.636719 12.296875 249.277344 12.578125 248.621094 13.265625 L 247.917969 13.984375 C 247.839844 14.046875 247.792969 14.1875 247.792969 14.515625 L 250.339844 14.515625 L 250.558594 13.140625 L 250.011719 13.140625 C 249.964844 13.4375 249.980469 13.59375 249.917969 13.703125 C 249.886719 13.75 249.589844 13.6875 249.496094 13.6875 L 248.511719 13.6875 L 248.636719 14 Z M 249.386719 13.3125 "
       id="path96" />
    <path
       style=" stroke:none;fill-rule:nonzero;fill:rgb(0%,0%,0%);fill-opacity:1;"
       d="M 125.460938 7.90625 C 125.195312 7.953125 124.882812 8.34375 124.882812 8.5 C 124.882812 8.703125 125.257812 8.96875 125.367188 8.96875 C 125.617188 8.96875 125.992188 8.546875 125.992188 8.328125 C 125.992188 7.96875 125.398438 7.625 125.039062 7.625 C 124.539062 7.625 124.039062 8.3125 123.960938 8.484375 L 124.367188 8.484375 C 124.179688 7.84375 123.460938 7.625 123.304688 7.625 C 122.460938 7.625 121.789062 8.921875 121.789062 9.09375 C 121.789062 9.125 122.039062 9.359375 122.101562 9.359375 C 122.164062 9.359375 122.320312 9.25 122.382812 9.125 C 122.679688 8.15625 123.039062 8.171875 123.289062 8.171875 C 123.664062 8.171875 123.523438 8.34375 123.523438 8.53125 C 123.523438 8.71875 123.476562 8.921875 123.382812 9.3125 L 123.085938 10.46875 C 122.960938 10.96875 122.929688 11.234375 122.492188 11.234375 C 122.445312 11.234375 122.382812 11.296875 122.210938 11.1875 L 122.054688 11.515625 C 122.367188 11.453125 122.632812 11.015625 122.632812 10.90625 C 122.632812 10.734375 122.304688 10.453125 122.148438 10.453125 C 121.945312 10.453125 121.523438 10.8125 121.523438 11.078125 C 121.523438 11.4375 122.117188 11.78125 122.476562 11.78125 C 122.882812 11.78125 123.304688 11.40625 123.492188 11.0625 L 123.132812 10.9375 C 123.273438 11.421875 123.898438 11.78125 124.210938 11.78125 C 125.054688 11.78125 125.710938 10.5 125.710938 10.3125 C 125.710938 10.265625 125.476562 10.046875 125.429688 10.046875 C 125.351562 10.046875 125.132812 10.28125 125.117188 10.34375 C 124.882812 11.078125 124.601562 11.234375 124.226562 11.234375 C 123.945312 11.234375 123.976562 11.203125 123.976562 10.859375 C 123.976562 10.6875 124.007812 10.546875 124.148438 10 L 124.445312 8.859375 C 124.570312 8.359375 124.648438 8.171875 125.039062 8.171875 C 125.054688 8.171875 125.132812 8.125 125.304688 8.234375 Z M 125.460938 7.90625 "
       id="path98" />
    <path
       style=" stroke:none;fill-rule:nonzero;fill:rgb(0%,0%,0%);fill-opacity:1;"
       d="M 127.863281 11.761719 C 127.957031 11.683594 128.191406 11.496094 128.285156 11.417969 C 128.628906 11.105469 129.019531 10.667969 129.019531 10.152344 C 129.019531 9.496094 128.269531 8.871094 127.566406 8.871094 C 126.894531 8.871094 126.269531 9.574219 126.269531 10.074219 C 126.269531 10.339844 126.675781 10.558594 126.753906 10.558594 C 126.863281 10.558594 127.222656 10.292969 127.222656 10.089844 C 127.222656 9.792969 126.769531 9.605469 126.957031 9.605469 C 127.050781 9.386719 127.238281 9.433594 127.503906 9.433594 C 128.035156 9.433594 128.113281 9.683594 128.113281 10.152344 C 128.113281 10.746094 127.753906 11.027344 127.097656 11.714844 L 126.394531 12.433594 C 126.316406 12.496094 126.269531 12.636719 126.269531 12.964844 L 128.816406 12.964844 L 129.035156 11.589844 L 128.488281 11.589844 C 128.441406 11.886719 128.457031 12.042969 128.394531 12.152344 C 128.363281 12.199219 128.066406 12.136719 127.972656 12.136719 L 126.988281 12.136719 L 127.113281 12.449219 Z M 127.863281 11.761719 "
       id="path100" />
    <path
       style=" stroke:none;fill-rule:nonzero;fill:rgb(0%,0%,0%);fill-opacity:1;"
       d="M 3.9375 7.90625 C 3.671875 7.953125 3.359375 8.34375 3.359375 8.5 C 3.359375 8.703125 3.734375 8.96875 3.84375 8.96875 C 4.09375 8.96875 4.46875 8.546875 4.46875 8.328125 C 4.46875 7.96875 3.875 7.625 3.515625 7.625 C 3.015625 7.625 2.515625 8.3125 2.4375 8.484375 L 2.84375 8.484375 C 2.65625 7.84375 1.9375 7.625 1.78125 7.625 C 0.9375 7.625 0.265625 8.921875 0.265625 9.09375 C 0.265625 9.125 0.515625 9.359375 0.578125 9.359375 C 0.640625 9.359375 0.796875 9.25 0.859375 9.125 C 1.15625 8.15625 1.515625 8.171875 1.765625 8.171875 C 2.140625 8.171875 2 8.34375 2 8.53125 C 2 8.71875 1.953125 8.921875 1.859375 9.3125 L 1.5625 10.46875 C 1.4375 10.96875 1.40625 11.234375 0.96875 11.234375 C 0.921875 11.234375 0.859375 11.296875 0.6875 11.1875 L 0.53125 11.515625 C 0.84375 11.453125 1.109375 11.015625 1.109375 10.90625 C 1.109375 10.734375 0.78125 10.453125 0.625 10.453125 C 0.421875 10.453125 0 10.8125 0 11.078125 C 0 11.4375 0.59375 11.78125 0.953125 11.78125 C 1.359375 11.78125 1.78125 11.40625 1.96875 11.0625 L 1.609375 10.9375 C 1.75 11.421875 2.375 11.78125 2.6875 11.78125 C 3.53125 11.78125 4.1875 10.5 4.1875 10.3125 C 4.1875 10.265625 3.953125 10.046875 3.90625 10.046875 C 3.828125 10.046875 3.609375 10.28125 3.59375 10.34375 C 3.359375 11.078125 3.078125 11.234375 2.703125 11.234375 C 2.421875 11.234375 2.453125 11.203125 2.453125 10.859375 C 2.453125 10.6875 2.484375 10.546875 2.625 10 L 2.921875 8.859375 C 3.046875 8.359375 3.125 8.171875 3.515625 8.171875 C 3.53125 8.171875 3.609375 8.125 3.78125 8.234375 Z M 3.9375 7.90625 "
       id="path102" />
    <path
       style=" stroke:none;fill-rule:nonzero;fill:rgb(0%,0%,0%);fill-opacity:1;"
       d="M 6.339844 11.761719 C 6.433594 11.683594 6.667969 11.496094 6.761719 11.417969 C 7.105469 11.105469 7.496094 10.667969 7.496094 10.152344 C 7.496094 9.496094 6.746094 8.871094 6.042969 8.871094 C 5.371094 8.871094 4.746094 9.574219 4.746094 10.074219 C 4.746094 10.339844 5.152344 10.558594 5.230469 10.558594 C 5.339844 10.558594 5.699219 10.292969 5.699219 10.089844 C 5.699219 9.792969 5.246094 9.605469 5.433594 9.605469 C 5.527344 9.386719 5.714844 9.433594 5.980469 9.433594 C 6.511719 9.433594 6.589844 9.683594 6.589844 10.152344 C 6.589844 10.746094 6.230469 11.027344 5.574219 11.714844 L 4.871094 12.433594 C 4.792969 12.496094 4.746094 12.636719 4.746094 12.964844 L 7.292969 12.964844 L 7.511719 11.589844 L 6.964844 11.589844 C 6.917969 11.886719 6.933594 12.042969 6.871094 12.152344 C 6.839844 12.199219 6.542969 12.136719 6.449219 12.136719 L 5.464844 12.136719 L 5.589844 12.449219 Z M 6.339844 11.761719 "
       id="path104" />
    <path
       style=" stroke:none;fill-rule:nonzero;fill:rgb(0%,0%,0%);fill-opacity:1;"
       d="M 274.878906 69.71875 C 274.878906 68.578125 273.800781 68.078125 273.769531 68.078125 C 273.988281 67.921875 274.488281 67.484375 274.488281 66.59375 C 274.488281 66.21875 274.332031 65.828125 274.207031 65.59375 C 273.925781 65.109375 273.191406 64.65625 272.425781 64.65625 C 271.660156 64.65625 270.847656 64.96875 270.160156 65.421875 L 270.472656 66.203125 C 270.957031 65.921875 271.519531 65.5625 272.269531 65.5625 C 273.253906 65.5625 273.503906 66.03125 273.503906 66.609375 C 273.503906 67.1875 273.238281 67.75 272.003906 67.75 L 271.785156 67.75 L 271.785156 68.65625 L 272.160156 68.65625 C 272.488281 68.65625 272.816406 68.6875 273.144531 68.765625 C 273.550781 68.875 273.894531 69.078125 273.894531 69.703125 C 273.894531 70.453125 273.347656 70.84375 272.285156 70.84375 C 271.628906 70.84375 270.941406 70.640625 270.253906 70.390625 L 270.003906 71.171875 L 270.644531 71.421875 C 271.332031 71.6875 272.144531 71.765625 272.394531 71.765625 C 273.472656 71.765625 274.878906 71.015625 274.878906 69.71875 Z M 274.878906 69.71875 "
       id="path106" />
  </g>
</svg>
